<?xml version="1.0" standalone="no"?>
<!DOCTYPE svg PUBLIC "-//W3C//DTD SVG 20010904//EN"
 "http://www.w3.org/TR/2001/REC-SVG-20010904/DTD/svg10.dtd">
<svg version="1.0" xmlns="http://www.w3.org/2000/svg"
 width="16.000000pt" height="16.000000pt" viewBox="0 0 16.000000 16.000000"
 preserveAspectRatio="xMidYMid meet">
<metadata>
Created by potrace 1.11, written by Peter Selinger 2001-2013
</metadata>
<g transform="translate(0.000000,16.000000) scale(0.004000,-0.004000)"
fill="#000000" stroke="none">
<path d="M1804 3974 c-21 -24 -21 -30 -20 -463 l1 -439 25 -21 c22 -19 36 -21
133 -19 104 2 108 2 134 -24 l26 -27 3 -937 c4 -1053 8 -983 -71 -1029 -35
-21 -54 -25 -126 -25 -104 0 -143 11 -180 50 -44 46 -52 75 -50 190 1 58 3
168 5 245 2 152 -6 188 -46 201 -13 4 -241 8 -508 8 -483 1 -485 1 -510 -21
l-25 -21 3 -477 c2 -262 7 -487 12 -500 5 -12 26 -41 47 -63 21 -22 83 -89
138 -148 55 -60 134 -144 176 -189 42 -44 109 -115 149 -157 40 -42 87 -83
104 -91 26 -13 134 -15 676 -15 421 0 652 4 665 10 27 14 319 314 554 568 80
86 73 -31 72 1255 l-2 1152 31 27 c26 22 41 26 91 26 101 0 99 -8 100 308 0
147 2 344 2 439 2 153 0 174 -16 190 -17 17 -63 18 -795 20 l-777 2 -21 -25z"/>
</g>
</svg>
